<svg preserveAspectRatio="none" overflow="visible" style="display: block;" width="70" height="69" viewBox="0 0 70 69" fill="none" xmlns="http://www.w3.org/2000/svg">
<g id="Icon" clip-path="url(#clip0_0_12)">
<path id="Vector" d="M23.5838 52.4795H14.9457C14.3941 52.4795 13.9489 52.0711 13.9489 51.5653C13.9489 51.0594 14.3941 50.6511 14.9457 50.6511H23.5838C24.1354 50.6511 24.5806 51.0594 24.5806 51.5653C24.5806 52.0711 24.1354 52.4795 23.5838 52.4795Z" fill="black"/>
<path id="Vector_2" d="M28.0137 59.5901H14.9457C14.3941 59.5901 13.9489 59.1818 13.9489 58.6759C13.9489 58.1701 14.3941 57.7617 14.9457 57.7617H28.0137C28.5652 57.7617 29.0104 58.1701 29.0104 58.6759C29.0104 59.1818 28.5652 59.5901 28.0137 59.5901Z" fill="black"/>
<path id="Vector_3" d="M62.7873 59.5901H35.3223C34.7707 59.5901 34.3255 59.1818 34.3255 58.6759C34.3255 58.1701 34.7707 57.7617 35.3223 57.7617H62.7873C63.3388 57.7617 63.784 58.1701 63.784 58.6759C63.784 59.1818 63.3388 59.5901 62.7873 59.5901Z" fill="black"/>
<path id="Vector_4" d="M36.6505 52.4795H28.0123C27.4608 52.4795 27.0156 52.0711 27.0156 51.5653C27.0156 51.0594 27.4608 50.6511 28.0123 50.6511H36.6505C37.202 50.6511 37.6472 51.0594 37.6472 51.5653C37.6472 52.0711 37.202 52.4795 36.6505 52.4795Z" fill="black"/>
<path id="Vector_5" d="M49.7208 52.4795H41.0826C40.5311 52.4795 40.0859 52.0711 40.0859 51.5653C40.0859 51.0594 40.5311 50.6511 41.0826 50.6511H49.7208C50.2724 50.6511 50.7176 51.0594 50.7176 51.5653C50.7176 52.0711 50.2724 52.4795 49.7208 52.4795Z" fill="black"/>
<path id="Vector_6" d="M62.7876 52.4795H54.1493C53.5978 52.4795 53.1526 52.0711 53.1526 51.5653C53.1526 51.0594 53.5978 50.6511 54.1493 50.6511H62.7876C63.3391 50.6511 63.7843 51.0594 63.7843 51.5653C63.7843 52.0711 63.3391 52.4795 62.7876 52.4795Z" fill="black"/>
<path id="Vector_7" d="M61.4172 25.2268C61.3485 25.0541 61.3573 20.9849 61.4393 18.8781C61.4859 17.6796 61.0141 17.3099 59.7272 17.3119C41.0244 17.3423 22.3194 17.3342 3.61207 17.3444C3.10042 17.3444 2.58656 17.4399 1.95309 17.5048C1.95309 23.7193 1.87778 29.8363 2.0151 35.9512C2.0439 37.2088 2.86785 38.4521 3.48803 40.1504C0.963013 39.1692 0.0438234 37.7695 0.0349636 35.9573C-0.00711992 26.1978 -0.0159796 16.4363 0.0349636 6.67676C0.0482532 4.09264 2.12142 2.32521 5.06284 2.32115C22.842 2.29474 40.6234 2.2927 58.4027 2.31708C61.1757 2.32115 63.2799 4.09264 63.322 6.59957C63.4217 12.4788 63.3464 18.3601 63.3773 24.2415C63.342 24.8509 63.342 25.4604 61.4172 25.2268ZM61.4172 12.8425C61.4172 10.9775 61.426 9.41122 61.4149 7.84491C61.395 4.94183 60.4471 4.07233 57.2465 4.06827C46.5373 4.05608 35.8281 4.04998 25.119 4.04796C18.6403 4.04592 12.1617 4.04186 5.68524 4.06827C3.03397 4.07843 1.98189 5.07389 1.93537 7.50564C1.91322 8.59657 2.0439 9.70173 1.89993 10.7764C1.66957 12.4971 2.43594 12.8832 4.22117 12.877C22.532 12.8202 40.8428 12.8425 59.1535 12.8425C59.8025 12.8425 60.4514 12.8425 61.4172 12.8425Z" fill="black"/>
<path id="Vector_8" d="M38.1505 66.6972C29.5565 66.6972 20.9648 66.7053 12.371 66.6951C8.36636 66.6891 6.53462 65.0496 6.52354 61.3928C6.49697 52.1168 6.49918 42.8407 6.52133 33.5647C6.53019 30.4219 8.52805 28.5325 11.9191 28.5284C29.5012 28.5061 47.0855 28.5061 64.6675 28.5284C67.9655 28.5325 69.9523 30.3427 69.9811 33.4468C70.0321 38.7715 69.9324 44.0982 69.9279 49.423C69.9258 53.3519 69.9989 57.2829 69.9989 61.212C69.9966 65.0557 68.1626 66.6951 63.9277 66.6972C55.336 66.6993 46.7422 66.6972 38.1505 66.6972ZM38.2081 64.8709C46.8019 64.8709 55.3959 64.8749 63.9876 64.8688C66.9267 64.8667 67.9124 63.9729 67.9147 61.2729C67.9257 52.2447 67.9257 43.2185 67.919 34.1904C67.9168 31.2244 67.0198 30.3792 63.8082 30.3772C46.7466 30.367 29.6872 30.365 12.6257 30.3731C9.52924 30.3751 8.60114 31.2427 8.59672 34.0706C8.58786 43.1068 8.59007 52.1452 8.59672 61.1815C8.59893 64.0114 9.52924 64.8667 12.6146 64.8709C21.1464 64.8769 29.6762 64.8709 38.2081 64.8709Z" fill="black"/>
<path id="Vector_9" d="M21.2536 34.8705C21.2536 35.6283 21.2536 36.2662 21.2536 37.0038C19.0852 37.0038 17.0208 37.0038 14.9765 37.0038C14.4604 34.5577 16.4427 34.3688 21.2536 34.8705Z" fill="black"/>
<path id="Vector_10" d="M24.0844 34.7974C28.8908 34.4825 30.7823 34.4419 30.3017 37.0177C28.2927 37.0177 26.2661 37.0177 24.0844 37.0177C24.0844 36.2802 24.0844 35.5977 24.0844 34.7974Z" fill="black"/>
<path id="Vector_11" d="M21.2935 43.063C21.2935 43.902 21.2935 44.5522 21.2935 45.1941C16.5536 45.8463 14.476 45.4725 14.9234 43.063C16.9656 43.063 19.0321 43.063 21.2935 43.063Z" fill="black"/>
<path id="Vector_12" d="M30.3305 43.1174C30.8001 45.5958 28.6494 45.671 24.0291 45.3134C23.9914 44.6675 23.9516 43.9869 23.8985 43.1174C26.1245 43.1174 28.2286 43.1174 30.3305 43.1174Z" fill="black"/>
<path id="Vector_13" d="M14.8458 41.0174C14.8458 40.3368 14.8458 39.7496 14.8458 38.9898C16.3564 38.9898 17.8205 38.9898 19.5039 38.9898C19.5392 39.6094 19.5769 40.2332 19.6234 41.0174C18.0065 41.0174 16.5359 41.0174 14.8458 41.0174Z" fill="black"/>
<path id="Vector_14" d="M30.3746 38.9613C30.3746 39.7088 30.3746 40.3507 30.3746 41.0738C28.8418 41.0738 27.4198 41.0738 25.8671 41.0738C25.8671 40.3609 25.8671 39.7271 25.8671 38.9613C27.3977 38.9613 28.8729 38.9613 30.3746 38.9613Z" fill="black"/>
</g>
<defs>
<clipPath id="clip0_0_12">
<rect width="70" height="69" fill="white"/>
</clipPath>
</defs>
</svg>
